<svg xmlns="http://www.w3.org/2000/svg" viewBox="0 0 156 58" fill="none">
  <g stroke="#fff" stroke-linecap="round" stroke-linejoin="round">
    <path d="M12 43h132" stroke-width="1.25"/>
    <path d="M47 43c0-21 13.8-34 31-34s31 13 31 34" stroke-width="2.15"/>
    <path d="M53 43c0-17.2 11.3-28.1 25-28.1S103 25.8 103 43" stroke-width="1.15" opacity=".72"/>
    <path d="M12 37h17l5 6" stroke-width="1.25" opacity=".85"/>
    <path d="M144 37h-17l-5 6" stroke-width="1.25" opacity=".85"/>
    <path d="M18 32h13l5 5" stroke-width="1.05" opacity=".58"/>
    <path d="M138 32h-13l-5 5" stroke-width="1.05" opacity=".58"/>
    <circle cx="39" cy="34" r="1.7" fill="#fff" stroke="none"/>
    <circle cx="117" cy="34" r="1.7" fill="#fff" stroke="none"/>
    <path d="M78 17v25" stroke-width=".9" opacity=".48"/>
    <path d="M69 43c3.5 2.4 6.5 3.5 9 3.5s5.5-1.1 9-3.5" stroke-width="1.05" opacity=".52"/>
    <path d="M72 48c2.1 1.2 4.1 1.8 6 1.8s3.9-.6 6-1.8" stroke-width=".95" opacity=".34"/>
  </g>
  <path fill="#fff" d="m78 22.2 2.6 6.3 6.3 2.6-6.3 2.6L78 40l-2.6-6.3-6.3-2.6 6.3-2.6 2.6-6.3Z"/>
</svg>
